{"title":"Six.Nations.Rugby.Union-Ireland.v.France-2013.03.09.720p.x264","uid":8237774,"size":3161168038,"categoryP":"video","categoryS":"hd___tv_shows","magnet":"?xt=urn:btih:aefc21a41bdf1a690ca1aa4a7b38300721d28850&amp;dn=Six.Nations.Rugby.Union-Ireland.v.France-2013.03.09.720p.x264&amp;tr=udp%3A%2F%2Ftracker.openbittorrent.com%3A80&amp;tr=udp%3A%2F%2Fopen.demonii.com%3A1337&amp;tr=udp%3A%2F%2Ftracker.coppersurfer.tk%3A6969&amp;tr=udp%3A%2F%2Fexodus.desync.com%3A6969","seeders":1,"leechers":0,"uploader":"rugbybill","files":4,"time":1362884865,"description":"SPORT: Six Nations Rugby Union - Ireland v France\nOn: BBC 1 HD\nDate: Saturday 9th March 2013 \nKO Time: 17:00\n\nLive coverage from Dublin as Declan Kidney's Ireland host Philippe Saint-Andre's France. Last year's Six Nations clash between the two nations was a hard-fought 17-17 draw in Paris, a rare stalemate after the initial match had to be postponed because of freezing sub-zero temperatures in the French capital. Ireland have not beaten France since February 2009, and that 31-20 victory is their only triumph against Les Bleus in 13 attempts. Commentary by Eddie Butler and Brian Moore.\n\n\nGeneral\nComplete name: 2013.03.09.6N.Ireland.v.France.720p.x264.mp4\nFormat: MPEG-4\nFormat profile: Base Media\nCodec ID: isom\nFile size: 2.94 GiB\nDuration: 1h 57mn\nOverall bit rate mode: Variable\nOverall bit rate: 3 578 Kbps\n\nVideo\nID: 1\nFormat: AVC\nFormat/Info: Advanced Video Codec\nFormat profile: &lt;a class=&quot;__cf_email__&quot; href=&quot;/cdn-cgi/l/email-protection&quot; data-cfemail=&quot;5e163739361e126a706f&quot;&gt;[email&amp;#160;protected]&lt;/a&gt;&lt;script cf-hash='f9e31' type=&quot;text/javascript&quot;&gt;\n/* &lt;![CDATA[ */!function(){try{var t=&quot;currentScript&quot;in document?document.currentScript:function(){for(var t=document.getElementsByTagName(&quot;script&quot;),e=t.length;e--;)if(t[e].getAttribute(&quot;cf-hash&quot;))return t[e]}();if(t&amp;&amp;t.previousSibling){var e,r,n,i,c=t.previousSibling,a=c.getAttribute(&quot;data-cfemail&quot;);if(a){for(e=&quot;&quot;,r=parseInt(a.substr(0,2),16),n=2;a.length-n;n+=2)i=parseInt(a.substr(n,2),16)^r,e+=String.fromCharCode(i);e=document.createTextNode(e),c.parentNode.replaceChild(e,c)}}}catch(u){}}();/* ]]&gt; */&lt;/script&gt;\nFormat settings, CABAC: Yes\nFormat settings, ReFrames: 5 frames\nCodec ID: avc1\nCodec ID/Info: Advanced Video Coding\nDuration: 1h 57mn\nBit rate: 3 450 Kbps\nMaximum bit rate: 8 982 Kbps\nWidth: 1 280 pixels\nHeight: 720 pixels\nDisplay aspect ratio: 16:9\nFrame rate mode: Constant\nFrame rate: 25.000 fps\nColor space: YUV\nChroma subsampling: 4:2:0\nBit depth: 8 bits\nScan type: Progressive\nBits/(Pixel*Frame): 0.150\nStream size: 2.84 GiB (96%)\nWriting library: x264 core 130 r2273 b3065e6\n\nAudio\nID: 2\nFormat: AAC\nFormat/Info: Advanced Audio Codec\nFormat profile: LC\nCodec ID: 40\nDuration: 1h 57mn\nBit rate mode: Variable\nBit rate: 124 Kbps\nMaximum bit rate: 128 Kbps\nChannel(s): 2 channels\nChannel positions: Front: L R\nSampling rate: 48.0 KHz\nCompression mode: Lossy\nStream size: 104 MiB (3%)","torrent":{"xt":"urn:btih:aefc21a41bdf1a690ca1aa4a7b38300721d28850","amp;dn":"Six.Nations.Rugby.Union-Ireland.v.France-2013.03.09.720p.x264","amp;tr":["udp%3A%2F%2Ftracker.openbittorrent.com%3A80","udp%3A%2F%2Fopen.demonii.com%3A1337","udp%3A%2F%2Ftracker.coppersurfer.tk%3A6969","udp%3A%2F%2Fexodus.desync.com%3A6969"],"infoHash":"aefc21a41bdf1a690ca1aa4a7b38300721d28850","infoHashBuffer":{"type":"Buffer","data":[174,252,33,164,27,223,26,105,12,161,170,74,123,56,48,7,33,210,136,80]},"announce":[],"urlList":[]}}